<?xml version="1.0" encoding="UTF-8"?>
<svg enable-background="new 0 0 480 480" version="1.1" viewBox="0 0 480 480" xml:space="preserve" xmlns="http://www.w3.org/2000/svg">
		<path d="m472 152h-80v-16h40c4.418 0 8-3.582 8-8v-48c0-4.418-3.582-8-8-8h-96c-4.418 0-8 3.582-8 8v48c0 4.418 3.582 8 8 8h40v16h-136c-0.44 1e-3 -0.878 0.039-1.312 0.112l-95.352 15.888h-23.336v-8c0-2.122-0.844-4.156-2.344-5.656l-18.344-18.344h28.688c4.418 0 8-3.582 8-8v-48c0-4.418-3.582-8-8-8h-96c-4.418 0-8 3.582-8 8v48c0 4.418 3.582 8 8 8h40v32h-64c-4.418 0-8 3.582-8 8v128c0 4.418 3.582 8 8 8h64v32h-40c-4.418 0-8 3.582-8 8v48c0 4.418 3.582 8 8 8h96c4.418 0 8-3.582 8-8v-48c0-4.418-3.582-8-8-8h-28.688l18.344-18.344c1.5-1.5 2.344-3.534 2.344-5.656v-8h23.336l95.352 15.888c0.434 0.073 0.872 0.111 1.312 0.112h136v16h-40c-4.418 0-8 3.582-8 8v48c0 4.418 3.582 8 8 8h96c4.418 0 8-3.582 8-8v-48c0-4.418-3.582-8-8-8h-40v-16h80c4.418 0 8-3.582 8-8v-160c0-4.418-3.582-8-8-8zm-128-32v-32h80v32h-80zm-40 48h72v41.136c-11.202 2.913-19.951 11.662-22.864 22.864h-49.136v-64zm-120 64h8v16h-8v-16zm-80-68.688v4.688h-16v-20.688l16 16zm0 20.688v16h-16v-16h16zm-64-64v-32h80v32h-80zm-24 176v-112h56v16h-24c-4.418 0-8 3.582-8 8v64c0 4.418 3.582 8 8 8h24v16h-56zm104 64v32h-80v-32h80zm-16-43.312l-16 16v-20.688h16v4.688zm0-20.688h-16v-16h16v16zm-48-32v-48h80v48h-80zm112 35.888l-22.688-3.776c-0.434-0.073-0.872-0.111-1.312-0.112h-24v-16h24c4.418 0 8-3.582 8-8v-8h16v35.888zm0-51.888h-16v-16h16v16zm0-32h-16v-8c0-4.418-3.582-8-8-8h-24v-16h24c0.44-1e-3 0.878-0.039 1.312-0.112l22.688-3.776v35.888zm120 96h-47.336l-56.664-9.44v-38.56h16c4.418 0 8-3.582 8-8v-8h80v64zm0-80h-80v-8c0-4.418-3.582-8-8-8h-16v-38.56l56.664-9.44h47.336v64zm16 80v-64h49.136c2.913 11.202 11.662 19.951 22.864 22.864v41.136h-72zm120 48v32h-80v-32h80zm-40-104c-8.837 0-16-7.163-16-16s7.163-16 16-16 16 7.163 16 16-7.163 16-16 16zm80 56h-72v-41.136c17.046-4.339 27.347-21.674 23.009-38.719-2.877-11.304-11.704-20.131-23.009-23.009v-41.136h72v144z" fill="#1089f9"/>
</svg>
