<?xml version="1.0" encoding="UTF-8"?>
<svg enable-background="new 0 0 480 480" version="1.1" viewBox="0 0 480 480" xml:space="preserve" xmlns="http://www.w3.org/2000/svg">
  <style>
    /* <![CDATA[ */
    path,
    circle,
    rect {
      fill: #1089f9;
    }
    /* ]]> */
  </style>
		<path d="m232 0h-192c-22.08 0.026-39.974 17.92-40 40v400c0.026 22.08 17.92 39.974 40 40h192c22.08-0.026 39.974-17.92 40-40v-400c-0.026-22.08-17.92-39.974-40-40zm24 440c0 13.255-10.745 24-24 24h-192c-13.255 0-24-10.745-24-24v-400c0-13.255 10.745-24 24-24h192c13.255 0 24 10.745 24 24v400z"/>
		<path d="m224 40h-176c-4.418 0-8 3.582-8 8v112c0 4.418 3.582 8 8 8h176c4.418 0 8-3.582 8-8v-112c0-4.418-3.582-8-8-8zm-8 112h-160v-96h160v96z"/>
		<path d="m204.46 220.8c-0.208-0.232-0.352-0.488-0.576-0.712s-0.48-0.368-0.712-0.576c-37.469-37.454-98.206-37.441-135.66 0.028s-37.441 98.206 0.028 135.66c0.208 0.2 0.36 0.464 0.576 0.68s0.48 0.368 0.704 0.576c37.46 37.456 98.192 37.452 135.65-8e-3s37.452-98.192-8e-3 -135.65zm-136.34 101.14c-1.036 1.051-1.971 2.197-2.792 3.424-6.125-11.503-9.326-24.336-9.32-37.368-0.05-44.134 35.688-79.952 79.822-80.002 13.09-0.015 25.983 3.186 37.546 9.322-1.227 0.824-2.373 1.761-3.424 2.8l-101.83 101.82zm11.536 22.768l-0.36-0.36c-2.942-3.136-2.878-8.037 0.144-11.096l101.82-101.82c3.063-3.03 7.976-3.09 11.112-0.136l0.328 0.336c2.957 3.134 2.9 8.047-0.128 11.112l-101.82 101.82c-3.059 3.022-7.96 3.086-11.096 0.144zm93.874 13.971c-23.421 12.422-51.478 12.421-74.898-3e-3 1.231-0.821 2.38-1.759 3.432-2.8l101.83-101.82c1.036-1.051 1.971-2.197 2.792-3.424 20.681 38.994 5.836 87.37-33.158 108.05z"/>
		<circle cx="48" cy="424" r="16"/>
		<circle cx="104" cy="424" r="16"/>
		<circle cx="160" cy="424" r="16"/>
		<circle cx="216" cy="424" r="16"/>
		<rect x="40" y="184" width="24" height="16"/>
		<rect x="208" y="184" width="24" height="16"/>
		<path d="m464 136v-40c1e-3 -0.859-0.137-1.713-0.408-2.528l-8-24c-1.089-3.268-4.147-5.473-7.592-5.472v-64h-16v64c-3.445-1e-3 -6.503 2.204-7.592 5.472l-8 24c-0.271 0.815-0.409 1.669-0.408 2.528v40h-16v16h16v200c0 4.418 3.582 8 8 8h8v56c0 8.837-7.163 16-16 16h-128v16h128c17.673 0 32-14.327 32-32v-56h8c4.418 0 8-3.582 8-8v-200h16v-16h-16zm-16 208h-16v-192h16v192zm0-208h-16v-38.704l5.768-17.296h4.464l5.768 17.296v38.704z"/>
		<rect x="184" y="120" width="16" height="16"/>
		<rect x="152" y="120" width="16" height="16"/>
		<rect x="120" y="120" width="16" height="16"/>
		<path d="m368 136v-40c1e-3 -0.859-0.137-1.713-0.408-2.528l-8-24c-1.089-3.268-4.147-5.473-7.592-5.472v-64h-16v64c-3.445-1e-3 -6.503 2.204-7.592 5.472l-8 24c-0.271 0.815-0.409 1.669-0.408 2.528v40h-16v16h16v200c0 4.418 3.582 8 8 8h8v32c0 4.418-3.582 8-8 8h-40v16h40c13.255 0 24-10.745 24-24v-32h8c4.418 0 8-3.582 8-8v-200h16v-16h-16zm-16 208h-16v-192h16v192zm0-208h-16v-38.704l5.768-17.296h4.464l5.768 17.296v38.704z"/>
		<rect x="88" y="120" width="16" height="16"/>
</svg>
