<?xml version="1.0" encoding="UTF-8"?>
<svg enable-background="new 0 0 480 480" version="1.1" viewBox="0 0 480 480" xml:space="preserve" xmlns="http://www.w3.org/2000/svg">
  <style>
    /* <![CDATA[ */
    path,
    circle,
    rect {
      fill: #1089f9;
    }
    /* ]]> */
  </style>
		<path d="m477.66 226.34l-16-16c-1.5-1.5-3.534-2.344-5.656-2.344h-24c-4.418 0-8 3.582-8 8v40h-16v-56c0-4.418-3.582-8-8-8h-51.72l-29.6-44.44c-1.489-2.232-3.997-3.568-6.68-3.56h-48v-16h56c4.418 0 8-3.582 8-8v-32c0-4.418-3.582-8-8-8h-160c-4.418 0-8 3.582-8 8v32c0 4.418 3.582 8 8 8h56v16h-48c-2.674 0-5.172 1.335-6.656 3.56l-29.624 44.44h-43.72c-4.418 0-8 3.582-8 8v48h-16v-48c0-4.418-3.582-8-8-8h-32c-2.674 0-5.172 1.335-6.656 3.56l-16 24c-0.874 1.316-1.341 2.86-1.344 4.44v24c3e-3 1.58 0.47 3.124 1.344 4.44l14.656 21.96v69.6c0 4.418 3.582 8 8 8h32c4.418 0 8-3.582 8-8v-48h16v48c0 4.418 3.582 8 8 8h43.72l29.6 44.44c1.489 2.232 3.997 3.568 6.68 3.56h232c4.418 0 8-3.582 8-8v-72h16v56c0 4.418 3.582 8 8 8h24c2.122 0 4.156-0.844 5.656-2.344l16-16c1.5-1.5 2.344-3.534 2.344-5.656v-128c0-2.122-0.844-4.156-2.344-5.656zm-429.66 29.656v80h-16v-64c-3e-3 -1.58-0.47-3.124-1.344-4.44l-14.656-21.96v-19.2l12.28-18.4h19.72v48zm32 24h-16v-16h16v16zm88-168v-16h144v16h-144zm80 16v16h-16v-16h16zm112 256h-187.72l-29.6-44.44c-1.489-2.232-3.997-3.568-6.68-3.56h-40v-128h40c2.674 0 5.172-1.335 6.656-3.56l29.624-44.44h135.44l29.6 44.44c1.489 2.232 3.997 3.568 6.68 3.56h16v176zm32-120v120h-16v-176h16v56zm32 40h-16v-32h16v32zm40 52.688l-11.312 11.312h-12.688v-144h12.688l11.312 11.312v121.38z"/>
		<path d="m309.9 258.59c-1.516-1.653-3.655-2.593-5.897-2.593h-38.024l13.832-62.264c0.958-4.313-1.761-8.586-6.074-9.545-2.55-0.567-5.216 0.147-7.142 1.913l-96 88c-3.256 2.986-3.475 8.047-0.489 11.303 1.516 1.653 3.655 2.593 5.897 2.593h38.024l-13.832 62.264c-0.958 4.313 1.761 8.586 6.074 9.545 2.55 0.567 5.216-0.147 7.142-1.913l96-88c3.256-2.986 3.475-8.047 0.489-11.303zm-88.577 70.343l10.488-47.2c0.959-4.313-1.76-8.587-6.073-9.545-0.57-0.127-1.151-0.191-1.735-0.191h-27.432l62.112-56.936-10.488 47.2c-0.959 4.313 1.76 8.587 6.073 9.545 0.57 0.127 1.151 0.19 1.735 0.191h27.432l-62.112 56.936z"/>
		<rect x="112" y="256" width="16" height="64"/>
		<rect x="112" y="224" width="16" height="16"/>
</svg>
