<?xml version="1.0" encoding="UTF-8"?>
<svg enable-background="new 0 0 480 480" version="1.1" viewBox="0 0 480 480" xml:space="preserve" xmlns="http://www.w3.org/2000/svg">
  <style>
    /* <![CDATA[ */
    path,
    circle,
    rect {
      fill: #1089f9;
    }
    /* ]]> */
  </style>
		<path d="m390.77 41.832l-100.04-33.352c-17.474-5.861-36.534-4.77-53.224 3.048l-85.504 39.912v-43.44c0-4.418-3.582-8-8-8h-96c-4.418 0-8 3.582-8 8v416c0.035 30.913 25.087 55.965 56 56h288c30.913-0.035 55.965-25.087 56-56v-313.87c0.031-30.999-19.813-58.526-49.232-68.296zm-334.77-25.832h16v16h16v-16h16v16h16v-16h16v40h-80v-40zm368 408c-0.026 22.08-17.92 39.974-40 40h-288c-22.08-0.026-39.974-17.92-40-40v-352h88c1.122-5e-3 2.229-0.251 3.248-0.72h0.136l96.888-45.248c12.979-6.078 27.797-6.937 41.392-2.4l100.04 33.368c22.884 7.602 38.318 29.015 38.296 53.128v313.87z"/>
		<path d="m248.36 291.06l-42.456-94.344c-1.812-4.029-6.548-5.827-10.578-4.014-1.784 0.802-3.212 2.231-4.014 4.014l-42.456 94.344c-12.362 27.475-0.111 59.77 27.364 72.132 7.039 3.167 14.669 4.804 22.388 4.804 30.128 2e-3 54.554-24.42 54.556-54.548 0-7.719-1.637-15.349-4.804-22.388zm-33.92 57.528c-19.418 8.744-42.248 0.09-50.992-19.328-4.533-10.068-4.533-21.596 0-31.664l35.16-78.128 35.16 78.128c8.744 19.418 0.09 42.248-19.328 50.992z"/>
		<path d="m370.65 87.472l-92.176-34.592c-10.042-3.747-21.347-1.297-28.936 6.272l-1.496 1.496c-10.677 10.68-10.674 27.994 7e-3 38.67 2.883 2.882 6.374 5.083 10.217 6.442l93.688 33.064c2.941 1.046 6.038 1.587 9.16 1.6 15.106-0.053 27.309-12.341 27.256-27.447-0.039-11.356-7.091-21.506-17.72-25.505zm1.152 29.448c-2.138 5.881-8.639 8.914-14.52 6.776l-93.688-33.032c-5.896-2.094-8.978-8.57-6.884-14.466 0.56-1.578 1.463-3.011 2.644-4.198l1.496-1.496c3.147-3.14 7.836-4.156 12-2.6l92.176 34.496c5.881 2.138 8.914 8.639 6.776 14.52z"/>
		<path d="m372 204c-15.464 0-28 12.536-28 28v132c0 15.464 12.536 28 28 28s28-12.536 28-28v-132c0-15.464-12.536-28-28-28zm12 160c0 6.627-5.373 12-12 12s-12-5.373-12-12v-132c0-6.627 5.373-12 12-12s12 5.373 12 12v132z"/>
		<path d="m293.67 152.8l-66.936-24.344c-0.879-0.31-1.804-0.464-2.736-0.456h-96c-22.08 0.026-39.974 17.92-40 40v224c0.026 22.08 17.92 39.974 40 40h152c22.08-0.026 39.974-17.92 40-40v-201.6c-0.024-16.814-10.536-31.827-26.328-37.6zm10.328 239.2c0 13.255-10.745 24-24 24h-152c-13.255 0-24-10.745-24-24v-224c0-13.255 10.745-24 24-24h94.592l65.616 23.856c9.463 3.469 15.765 12.465 15.792 22.544v201.6z"/>
</svg>
