<?xml version="1.0" encoding="UTF-8"?>
<svg enable-background="new 0 0 480.022 480.022" version="1.1" viewBox="0 0 480.022 480.022" xml:space="preserve" xmlns="http://www.w3.org/2000/svg">
  <style>
    /* <![CDATA[ */
    path,
    circle,
    rect,
    polygon {
      fill: #1089f9;
    }
    /* ]]> */
  </style>
		<polygon points="424 92.012 424 108.01 408 108.01 408 92.012 392 92.012 392 108.01 376 108.01 376 92.012 360 92.012 360 140.01 376 140.01 376 124.01 392 124.01 392 140.01 408 140.01 408 124.01 424 124.01 424 140.01 440 140.01 440 92.012"/>
		<path d="m420.26 38.46c-6.62-1.685-13.431-2.508-20.262-2.448-41.064 0.052-75.438 31.147-79.592 72h-280.41c-22.08 0.026-39.974 17.92-40 40v256c0.026 22.08 17.92 39.974 40 40h400c22.08-0.026 39.974-17.92 40-40v-256c-0.062-4.486-0.89-8.929-2.448-13.136 10.804-42.444-14.845-85.611-57.29-96.416zm-28.568 13.803c35.047-4.593 67.18 20.095 71.773 55.142 1.128 8.608 0.493 17.356-1.867 25.711-0.875 3.072-1.982 6.072-3.312 8.976-0.352 0.8-0.744 1.544-1.12 2.312-1.118 2.26-2.371 4.45-3.752 6.56-0.352 0.544-0.68 1.104-1.056 1.64-3.702 5.293-8.182 9.997-13.288 13.952-0.344 0.264-0.696 0.512-1.04 0.8-2.353 1.755-4.825 3.343-7.4 4.752-0.304 0.168-0.6 0.36-0.904 0.52-9.078 4.805-19.185 7.339-29.456 7.384-1.312 0-2.64-0.072-3.96-0.16-0.416 0-0.84 0-1.256-0.064-9.904-0.94-19.485-4.022-28.08-9.032l-0.448-0.272c-8.537-5.274-15.725-12.467-20.992-21.008l-0.224-0.368c-2.952-4.865-5.244-10.1-6.816-15.568-0.08-0.288-0.144-0.576-0.224-0.864-0.61-2.27-1.093-4.572-1.448-6.896-0.088-0.584-0.192-1.16-0.272-1.744-4.593-35.046 20.095-67.18 55.142-71.773zm-15.678 239.75h-0.016-112c-4.418 0-8 3.582-8 8v64c0 8.837-7.163 16-16 16s-16-7.163-16-16v-36.688l67.312-67.312h84.688c4.418 0 8-3.582 8-8v-57.648c3.053 0.627 6.142 1.071 9.248 1.328 2.256 0.208 4.512 0.32 6.752 0.32h0.488c2.328 0 4.656-0.136 6.96-0.344l1.6-0.176c0.512-0.056 1.024-0.152 1.536-0.216 1.424-0.192 2.848-0.4 4.256-0.664 0.392-0.072 0.8-0.104 1.176-0.184v169.58c0 8.837-7.163 16-16 16s-16-7.163-16-16v-64c0-4.418-3.582-8-8-8zm-272.02-32h112c4.418 0 8-3.582 8-8v-64c0-8.837 7.163-16 16-16s16 7.163 16 16v36.688l-67.312 67.312h-84.688c-4.418 0-8 3.582-8 8v64c0 8.837-7.163 16-16 16s-16-7.163-16-16v-176c0-8.837 7.163-16 16-16s16 7.163 16 16v64c0 4.419 3.582 8 8 8zm233.5-94.192l0.096 0.104c1.755 2.182 3.625 4.271 5.6 6.256 0.088 0.096 0.168 0.208 0.264 0.296l0.16 0.152 0.232 0.208c1.96 1.939 4.016 3.779 6.16 5.512l0.176 0.16-67.848 67.848-58.344 58.344v-4.688c0-4.418-3.582-8-8-8h-4.688l126.19-126.19zm26.416 21.584c1.328 0.672 2.712 1.24 4.08 1.84v54.768h-60.688l56.608-56.608zm100.08 216.61c0 13.255-10.745 24-24 24h-400c-13.255 0-24-10.745-24-24v-256c0-13.255 10.745-24 24-24h280.4c0.064 0.672 0.208 1.32 0.288 1.984s0.2 1.376 0.304 2.056c0.471 3.15 1.125 6.27 1.96 9.344l0.064 0.232c0.971 3.417 2.169 6.766 3.584 10.024 0.072 0.16 0.152 0.32 0.224 0.488 0.584 1.32 1.136 2.656 1.792 3.944l-56.616 56.616v-20.688c0-17.673-14.327-32-32-32s-32 14.327-32 32v56h-96v-56c0-17.673-14.327-32-32-32s-32 14.327-32 32v176c0 17.673 14.327 32 32 32s32-14.327 32-32v-56h96v56c0 17.673 14.327 32 32 32s32-14.327 32-32v-56h96v56c0 17.673 14.327 32 32 32s32-14.327 32-32v-174.82c12.678-5.517 23.705-14.234 32-25.296v240.12z"/>
		<rect x="32" y="140.01" width="16" height="16"/>
		<rect x="32" y="396.01" width="16" height="16"/>
		<rect x="432" y="396.01" width="16" height="16"/>
</svg>
