<?xml version="1.0" encoding="UTF-8"?>
<svg enable-background="new 0 0 25.625 25.625" version="1.1" viewBox="0 0 25.625 25.625" xml:space="preserve" xmlns="http://www.w3.org/2000/svg">
	<path d="m22.079 17.835c-1.548-1.324-3.119-2.126-4.648-0.804l-0.913 0.799c-0.668 0.58-1.91 3.29-6.712-2.234-4.801-5.517-1.944-6.376-1.275-6.951l0.918-0.8c1.521-1.325 0.947-2.993-0.15-4.71l-0.662-1.04c-1.102-1.713-2.302-2.838-3.827-1.515l-0.824 0.72c-0.674 0.491-2.558 2.087-3.015 5.119-0.55 3.638 1.185 7.804 5.16 12.375 3.97 4.573 7.857 6.87 11.539 6.83 3.06-0.033 4.908-1.675 5.486-2.272l0.827-0.721c1.521-1.322 0.576-2.668-0.973-3.995l-0.931-0.801z" fill="#1089f9"/>
</svg>
