<svg xmlns="http://www.w3.org/2000/svg" xmlns:xlink="http://www.w3.org/1999/xlink" viewBox="0 0 512.028 512.028"><use xlink:href="#B"/><use xlink:href="#B" y="-136.533"/><use xlink:href="#B" y="-42.667"/><use xlink:href="#B" y="-93.867"/>
  <style>
    /* <![CDATA[ */
    path,
    circle,
    rect,
    polygon {
      fill: #1089f9;
    }
    /* ]]> */
  </style>
<path d="M494.96 204.813h-59.733v-42.667c-.028-23.552-19.114-42.638-42.667-42.667h-68.267V84.416c4.733-1.498 8.57-5 10.494-9.576a16.93 16.93 0 0 0-.5-14.198l-8.533-17.067a16.99 16.99 0 0 0-15.249-9.429h-178.2c-5.37.01-10.424 2.537-13.653 6.827l-12.8 17.067c-3.88 5.172-4.503 12.1-1.612 17.872s8.8 9.434 15.265 9.434v34.133C56.838 119.427 4.8 167.82.3 230.315s40.096 117.83 102.117 126.733v61.1H68.755c-9.55-.12-17.392 7.517-17.527 17.067v25.6a17.32 17.32 0 0 0 17.527 17.067h314.812c9.55.12 17.392-7.517 17.528-17.067v-25.6a17.32 17.32 0 0 0-17.528-17.067h-33.672v-59.733h42.667c23.552-.028 42.638-19.114 42.667-42.667V273.08h59.733a17.07 17.07 0 0 0 17.067-17.067V221.88c-.001-9.426-7.642-17.067-17.068-17.067zm-362.667-153.6h178.2l8.533 17.067H119.494l12.8-17.067zm174.934 34.134v34.133H136.56V85.347h170.667zm76.8 350.054l-.46 25.412H68.294l.46-25.6 315.273.188zm-264.534-17.254v-59.733h213.333v59.733H119.494zm298.667-102.4c0 14.138-11.462 25.6-25.6 25.6H119.494c-56.554 0-102.4-45.846-102.4-102.4s45.846-102.4 102.4-102.4h256v179.2c0 4.713 3.82 8.533 8.533 8.533s8.533-3.82 8.533-8.533v-179.2c14.138 0 25.6 11.46 25.6 25.6v153.6zm76.8-59.734h-59.733V221.88h59.733v34.133zm-413.388-73.84a8.53 8.53 0 0 0 3.897-7.688c-.186-3.078-2.018-5.817-4.793-7.163s-6.06-1.1-8.593.67c-23.7 15.833-37.93 42.453-37.93 70.955s14.23 55.12 37.93 70.955c3.914 2.62 9.212 1.575 11.836-2.338a8.54 8.54 0 0 0 1.282-6.41 8.53 8.53 0 0 0-3.628-5.436c-18.967-12.665-30.356-33.966-30.356-56.772a68.27 68.27 0 0 1 30.355-56.773z"/><defs ><path id="B" d="M324.294 298.68H110.96c-4.713 0-8.533 3.82-8.533 8.533s3.82 8.533 8.533 8.533h213.333c4.713 0 8.533-3.82 8.533-8.533s-3.82-8.533-8.533-8.533z"/></defs></svg>