<svg xmlns="http://www.w3.org/2000/svg" height="641" viewBox="0 0 480 480" width="641">
  <style>
    /* <![CDATA[ */
    path,
    circle,
    rect,
    polygon {
      fill: #1089f9;
    }
    /* ]]> */
  </style>
<path d="M240 0C107.453 0 0 107.453 0 240s107.453 240 240 240 240-107.453 240-240C479.852 107.516 372.484.148 240 0zm0 464C116.3 464 16 363.7 16 240S116.3 16 240 16s224 100.3 224 224c-.14 123.652-100.348 223.86-224 224zm0-432C125.125 32 32 125.125 32 240s93.125 208 208 208 208-93.125 208-208c-.133-114.82-93.18-207.867-208-208zm0 16c88.668.125 165.754 60.86 186.633 147.03C387.273 179.3 275.824 136 240 136S92.727 179.3 53.367 195.03C74.246 108.86 151.332 48.125 240 48zM52.223 280h91.723l51.848 146.8A192.59 192.59 0 0 1 52.223 280zm161.73 150.184l-56.8-160.848a8 8 0 0 0-7.551-5.336H49.55a187.27 187.27 0 0 1 .297-50.297C104.45 191.406 209 152 240 152s135.55 39.406 190.152 61.703a187.27 187.27 0 0 1 .297 50.297H330.4a8 8 0 0 0-7.543 5.336l-56.8 160.848a187.66 187.66 0 0 1-52.094 0zm70.254-3.375L336.055 280h91.723c-15.602 72.496-71.437 129.594-143.57 146.8zm0 0"/><path d="M304 240c0-35.348-28.652-64-64-64s-64 28.652-64 64 28.652 64 64 64c35.328-.04 63.96-28.672 64-64zm-112 0c0-26.508 21.492-48 48-48s48 21.492 48 48-21.492 48-48 48c-26.5-.027-47.973-21.5-48-48zm80 0c0-17.672-14.328-32-32-32s-32 14.328-32 32 14.328 32 32 32 32-14.328 32-32zm-48 0c0-8.836 7.164-16 16-16s16 7.164 16 16-7.164 16-16 16-16-7.164-16-16zm0 0"/></svg>