<svg xmlns="http://www.w3.org/2000/svg" viewBox="0 0 480 480">
<style>
  /* <![CDATA[ */
  path,
  circle,
  rect,
  polygon {
    fill: #1089f9;
  }
  /* ]]> */
</style>
<path d="M464 0v24H240c-33.814-.025-67.155 7.944-97.304 23.256L88 30.832c-24.274-7.3-49.87 6.462-57.168 30.736-2.592 8.62-2.592 17.812 0 26.432l16.424 54.72C31.947 172.86 23.98 206.194 24 240c0 2.4.104 4.744.184 7.104-.08.294-.143.594-.184.896v216H0v16h160v-16h-24v-34.76a215.34 215.34 0 0 0 201.304 3.504L392 449.168c24.274 7.3 49.87-6.462 57.168-30.736 2.592-8.62 2.592-17.812 0-26.432l-16.424-54.72C448.053 307.14 456.02 273.806 456 240a216.86 216.86 0 0 0-18.744-88H464v24h16V0h-16zM46.168 83.376C41.406 67.6 50.343 50.932 66.13 46.17c5.62-1.696 11.617-1.696 17.238-.002l40.048 12-3.584 2.4-1.12.76c-22.578 15.306-42.038 34.766-57.344 57.344l-.76 1.12-2.4 3.584-12.04-40zM120 464H40v-16h80v16zm-80-32V321.464c1.984 4.853 4.14 9.62 6.464 14.304l.344.664a211.64 211.64 0 0 0 6.848 12.608c.28.472.536.944.8 1.416a211.36 211.36 0 0 0 7.64 11.88l2.04 2.864c2.133 3.008 4.355 5.957 6.664 8.848.8.976 1.512 1.96 2.296 2.92 2.68 3.264 5.48 6.4 8.344 9.528 1.208 1.312 2.456 2.592 3.704 3.88a220.68 220.68 0 0 0 6.824 6.72l4.52 4.16c2.667 2.384 5.395 4.696 8.184 6.936l4.216 3.312c3.408 2.608 6.864 5.152 10.4 7.56.232.16.44.336.672.488L120 432H40zm393.832-35.376c4.75 15.8-4.2 32.457-20 37.206a29.87 29.87 0 0 1-17.191.002l-40.048-12 3.584-2.4 1.12-.76c22.578-15.306 42.038-34.766 57.344-57.344l.76-1.12 2.4-3.584 12.04 40zM440 240a198.71 198.71 0 0 1-23.584 94.096c-1.896 3.56-3.904 7.032-6 10.448-.904 1.472-1.856 2.912-2.792 4.36-1.352 2.08-2.752 4.12-4.176 6.136a188.37 188.37 0 0 1-6.152 8.256l-3.464 4.36a183.3 183.3 0 0 1-5.168 5.968l-2.4 2.584a198.69 198.69 0 0 1-10.056 10.056l-2.584 2.4c-1.963 1.76-3.952 3.483-5.968 5.168-1.432 1.184-2.896 2.32-4.36 3.464a174.27 174.27 0 0 1-8.256 6.152c-2.016 1.424-4.056 2.824-6.136 4.176l-4.36 2.792c-3.416 2.096-6.888 4.104-10.448 6-64.527 34.522-142.78 30.93-203.872-9.36-1.704-1.12-3.376-2.28-5.04-3.448l-4.2-2.984c-1.664-1.24-3.272-2.528-4.888-3.8a210.46 210.46 0 0 1-7.288-6.056l-3.792-3.336c-1.464-1.344-2.888-2.728-4.312-4.112l-3.496-3.472a184.09 184.09 0 0 1-4-4.192c-1.232-1.336-2.4-2.696-3.632-4.064s-2.296-2.6-3.408-3.936c-2.2-2.648-4.344-5.336-6.4-8.096-.448-.6-.864-1.224-1.304-1.824-1.768-2.4-3.504-4.896-5.168-7.4-.544-.8-1.056-1.656-1.6-2.48-1.6-2.448-3.096-4.92-4.552-7.432l-1.2-2.08a198.33 198.33 0 0 1-4.912-9.192l-.232-.488c-12.508-25.232-19.53-52.827-20.6-80.968L40 240a198.71 198.71 0 0 1 23.584-94.096c1.896-3.56 3.904-7.032 6-10.448.904-1.472 1.856-2.912 2.792-4.36 1.352-2.08 2.752-4.12 4.176-6.136a181.44 181.44 0 0 1 6.152-8.256l3.464-4.36a183.3 183.3 0 0 1 5.168-5.968l2.4-2.584a198.69 198.69 0 0 1 10.056-10.056l2.584-2.4c1.957-1.76 3.947-3.483 5.968-5.168 1.432-1.184 2.896-2.32 4.36-3.464a174.27 174.27 0 0 1 8.256-6.152c2.016-1.424 4.056-2.824 6.136-4.176l4.36-2.792c3.416-2.096 6.888-4.104 10.448-6A198.71 198.71 0 0 1 240 40h160v96h-72v.496C270.642 87.7 184.6 94.642 135.793 152S93.94 295.4 151.297 344.207s143.4 41.854 192.207-15.504c43.33-50.932 43.33-125.77 0-176.703h76A197.6 197.6 0 0 1 440 240zm-80 0c0 66.274-53.726 120-120 120s-120-53.726-120-120 53.726-120 120-120c66.243.075 119.925 53.757 120 120zm104-104h-48V40h48v96zm-120.464 94.856l-.36-3.368-.8-5.472-1.368-6.488-1.16-4.576-.08-.24-2.936-8.472-.432-1.176-3.92-8.48-.328-.688-4.888-8.336-.248-.4-5.552-7.656c-.2-.216-.336-.432-.496-.624l-5.704-6.456-1.144-1.248-5.264-4.904-2.328-2.12-4.368-3.336-3.832-2.864c-1.16-.8-2.4-1.472-3.576-2.208l-4.728-2.912c-.12-.072-.248-.12-.368-.184l-1.976-.968-6.96-3.352-3.08-1.168-6.272-2.296-3.688-1-6.016-1.552-4.176-.72-5.768-.88-4.888-.36-5.144-.256c-.56 0-1.112-.088-1.68-.088-1.52 0-3.008.16-4.512.232l-3.608.176-7.856.952-1.76.264-8.912 1.968-.568.12-.28.088-9.184 3.008-.8.272-8.8 3.896-.736.36-8.176 4.648-.904.552-7.248 5.136-1.312.984-6.048 5.256-1.864 1.696-4.744 5.024-2.4 2.656-3.512 4.568-2.776 3.712-2.704 4.368-2.488 4-.152.312c-1.856 3.437-3.518 6.976-4.976 10.6-.408 1-.736 2.008-1.112 3.016-1.032 2.792-1.96 5.6-2.76 8.528l-.888 3.432a108.1 108.1 0 0 0-1.688 8.856c-.16 1.064-.36 2.112-.48 3.2A104.11 104.11 0 0 0 136 240c0 3.048.184 6.096.464 9.144.096 1.128.232 2.248.36 3.368.232 1.832.52 3.656.8 5.472.384 2.192.848 4.352 1.368 6.488.368 1.528.72 3.056 1.16 4.576l.08.24c.856 2.888 1.856 5.712 2.944 8.488.144.384.264.8.416 1.152 1.184 2.912 2.512 5.752 3.944 8.528.112.208.2.424.304.632a103.93 103.93 0 0 0 4.936 8.408c.072.112.128.224.2.328 1.752 2.672 3.632 5.248 5.6 7.752.136.168.256.344.392.512 1.824 2.272 3.776 4.44 5.792 6.552.352.376.68.8 1.048 1.152 1.712 1.752 3.536 3.384 5.376 5.008.744.664 1.448 1.376 2.216 2.016 1.448 1.216 3 2.312 4.52 3.448 1.224.92 2.4 1.896 3.68 2.76s2.472 1.52 3.704 2.288c1.536.952 3.032 1.968 4.616 2.84.104.056.216.096.312.152 3.437 1.856 6.976 3.518 10.6 4.976 1 .408 2.008.736 3.016 1.112 2.792 1.032 5.6 1.96 8.528 2.76l3.432.888a108.1 108.1 0 0 0 8.856 1.688c1.064.16 2.112.36 3.2.48A104.1 104.1 0 0 0 240 344c3.048 0 6.096-.184 9.144-.464 1.128-.096 2.248-.232 3.368-.36 1.832-.232 3.656-.52 5.472-.8 2.192-.384 4.352-.848 6.488-1.368 1.52-.368 3.048-.712 4.56-1.152l.24-.08c2.88-.848 5.696-1.848 8.472-2.936.384-.152.8-.272 1.176-.432 2.888-1.168 5.704-2.488 8.456-3.904l.712-.344c2.848-1.5 5.6-3.12 8.288-4.864.152-.096.304-.176.456-.28a104.25 104.25 0 0 0 7.576-5.488c.224-.184.472-.344.696-.528 2.2-1.768 4.288-3.656 6.328-5.6.456-.424.936-.8 1.384-1.256 1.656-1.6 3.2-3.368 4.752-5.104.752-.8 1.544-1.6 2.264-2.488 1.112-1.336 2.12-2.76 3.2-4.152s2.08-2.656 3.032-4.056c.696-1.024 1.296-2.112 1.96-3.2 1.064-1.696 2.192-3.36 3.2-5.128.056-.104.096-.216.152-.32a102.97 102.97 0 0 0 4.968-10.584c.408-1 .736-2.016 1.112-3.024a85.8 85.8 0 0 0 2.76-8.528l.888-3.424c.688-2.912 1.24-5.872 1.688-8.872.16-1.056.36-2.096.48-3.16A104.2 104.2 0 0 0 344 240c0-3.048-.184-6.096-.464-9.144zM288.328 202.6c.36-.456.656-.952.992-1.424.56-.8 1.144-1.536 1.6-2.352.344-.552.624-1.144.936-1.72.424-.8.872-1.512 1.24-2.304.288-.616.512-1.256.76-1.88.328-.8.672-1.56.944-2.4.216-.632.36-1.296.544-1.944.232-.8.488-1.6.672-2.464.144-.664.216-1.336.32-2 .144-.84.304-1.672.384-2.52.064-.688.064-1.368.096-2.056.04-.848.104-1.688.088-2.544 0-.688-.096-1.384-.144-2.08s-.056-1.456-.152-2.184c.24.2.456.424.688.632a87.58 87.58 0 0 1 7.112 6.888c.456.488.896.976 1.336 1.472a88.97 88.97 0 0 1 12.656 18.528c.176.352.336.712.512 1.064a86.39 86.39 0 0 1 4.08 9.728c.088.216.208.424.248.648l-.016.104L315.2 222.4A24.12 24.12 0 0 1 296 232h-33.36c-.136-.384-.312-.744-.464-1.12l-.16-.384c-.12-.28-.216-.568-.352-.848l23.592-23.592a40.12 40.12 0 0 0 3.072-3.456zm-50.12-50.512c2.288-.048 4.568 0 6.84.168 1.144.064 2.304.064 3.44.176a84.83 84.83 0 0 1 9.528 1.44c.848.176 1.664.44 2.504.64 2.4.584 4.8 1.224 7.136 2.008 1.08.36 2.128.8 3.2 1.168 2.075.78 4.12 1.635 6.136 2.568.624.288 1.24.592 1.864.896l1.888 13.232c1.052 7.475-1.458 15-6.784 20.36l-23.592 23.592c-.28-.136-.568-.232-.848-.352l-.384-.16c-.376-.152-.736-.328-1.12-.464v-37.6a40.03 40.03 0 0 0-.672-6.952c-.112-.64-.256-1.272-.4-1.904a39.85 39.85 0 0 0-1.52-5.128c-.192-.52-.344-1.04-.552-1.544-.865-2.064-1.9-4.052-3.096-5.944-.256-.392-.56-.752-.8-1.144a39.33 39.33 0 0 0-3.392-4.264c-.208-.232-.368-.512-.584-.744.376 0 .792-.04 1.208-.048zm-64.888 30.648v.016c2.337-2.7 4.835-5.257 7.48-7.656.416-.376.8-.8 1.24-1.128a88.75 88.75 0 0 1 20.104-13.272l.376-.176a86.51 86.51 0 0 1 11.576-4.512l4.64 2.32c8.148 4.037 13.292 12.355 13.264 21.448v37.6c-.384.136-.744.312-1.12.464l-.384.16c-.28.12-.568.216-.848.352l-23.592-23.592a39.92 39.92 0 0 0-5.6-4.56c-.312-.216-.616-.44-.936-.648-1.928-1.24-3.96-2.3-6.072-3.2-.36-.152-.72-.288-1.088-.432a40.58 40.58 0 0 0-6.76-2.048l-.376-.056c-2.293-.427-4.62-.655-6.952-.68-.192 0-.384-.064-.584-.064h-.392c-1.032 0-2.064.096-3.096.192-.488 0-.976 0-1.464.096l.584-.624zm-19.536 63.16v.056c-.464.536-.968 1.048-1.4 1.6-.216-2.528-.384-5.016-.384-7.552.01-3.208.193-6.412.552-9.6.088-.8.256-1.6.36-2.352.336-2.4.712-4.8 1.24-7.112.208-.96.488-1.888.728-2.84.544-2.104 1.144-4.192 1.84-6.256.36-1.072.76-2.128 1.168-3.2.704-1.848 1.48-3.672 2.312-5.472.304-.664.632-1.328.952-1.984l13.232-1.888a24.05 24.05 0 0 1 20.36 6.784l23.592 23.592c-.128.272-.224.56-.344.8l-.176.416c-.152.368-.328.728-.456 1.104H184a40.36 40.36 0 0 0-4.624.272c-.536.064-1.056.2-1.6.28-.984.16-1.976.296-2.944.528-.6.144-1.184.352-1.784.528-.872.248-1.752.472-2.6.8-.616.224-1.208.512-1.808.8-.8.336-1.6.64-2.4 1.032-.616.304-1.192.672-1.792 1.008-.728.408-1.472.8-2.176 1.248s-1.144.8-1.72 1.24-1.344.936-1.984 1.464-1.048.952-1.6 1.432-1.232 1.096-1.8 1.688-.912 1.04-1.384 1.584zm37.88 31.512v.056c-.296.376-.536.8-.8 1.168-.624.856-1.264 1.704-1.816 2.608-.296.472-.528.984-.8 1.472-.472.8-.968 1.68-1.376 2.552-.264.56-.456 1.136-.688 1.704-.352.84-.72 1.68-1.016 2.544-.2.6-.336 1.216-.504 1.824-.248.856-.52 1.704-.704 2.584-.136.64-.208 1.288-.312 1.936-.144.856-.304 1.712-.392 2.584-.064.672-.064 1.352-.096 2.032 0 .856-.104 1.704-.088 2.552 0 .704.096 1.4.144 2.104s.056 1.448.152 2.168c-.216-.184-.416-.384-.624-.568a88.65 88.65 0 0 1-7.2-6.992l-1.288-1.408a89.3 89.3 0 0 1-12.64-18.536c-.176-.336-.336-.688-.504-1.032a87.67 87.67 0 0 1-4.088-9.744c-.08-.216-.168-.424-.24-.648L164.8 257.6A24.13 24.13 0 0 1 184 248h33.36c.128.376.304.736.456 1.104l.176.416c.12.272.216.56.344.8l-23.592 23.592a40.71 40.71 0 0 0-3.08 3.496zm54.416 50.28l-.016.056c-2.947.212-5.903.268-8.856.168-1.12 0-2.248-.088-3.36-.168a86.7 86.7 0 0 1-8.544-1.016c-.704-.12-1.424-.184-2.12-.32a87.71 87.71 0 0 1-10.4-2.704c-.712-.232-1.392-.52-2.096-.8a90.16 90.16 0 0 1-7.888-3.24 44.94 44.94 0 0 1-1.656-.8l-1.872-13.264a24.09 24.09 0 0 1 6.784-20.36l23.592-23.592c.28.136.568.232.856.36l.376.152c.368.152.736.328 1.12.464V296a40.36 40.36 0 0 0 .272 4.624c.064.544.2 1.064.28 1.6.16.984.296 1.968.528 2.936.144.616.36 1.208.536 1.816.248.864.472 1.728.8 2.576.224.616.52 1.208.8 1.824.336.8.648 1.6 1.032 2.4.304.616.672 1.192 1.008 1.792.408.728.8 1.48 1.248 2.184s.8 1.152 1.248 1.728.936 1.336 1.448 1.968.968 1.064 1.456 1.6 1.08 1.224 1.672 1.792 1.08.944 1.6 1.416 1.048.96 1.6 1.392c-.488.008-.976.008-1.448.04zm1.296-84.576a8.75 8.75 0 0 1-.976 1.456c-.512.712-1.136 1.336-1.848 1.848a8.75 8.75 0 0 1-1.456.976 8 8 0 0 1-6.192 0 8.75 8.75 0 0 1-1.456-.976 7.75 7.75 0 0 1-1.72-1.672 8.11 8.11 0 0 1-1.104-1.6 8 8 0 0 1 0-6.192 8.14 8.14 0 0 1 1.104-1.68v.016a7.75 7.75 0 0 1 1.72-1.672 8.75 8.75 0 0 1 1.456-.976 8 8 0 0 1 6.192 0 8.75 8.75 0 0 1 1.456.976c.712.512 1.336 1.136 1.848 1.848a8.75 8.75 0 0 1 .976 1.456 8 8 0 0 1 0 6.192zm59.232 54.224l-.016.056a87.58 87.58 0 0 1-6.888 7.112l-1.472 1.336c-5.608 4.947-11.817 9.167-18.48 12.56l-1.064.512a86.47 86.47 0 0 1-9.728 4.08c-.216.08-.424.168-.648.24L257.6 315.2A24.12 24.12 0 0 1 248 296v-33.36c.384-.136.744-.312 1.12-.464l.384-.16c.28-.12.568-.216.848-.352l23.592 23.592c1.725 1.7 3.6 3.222 5.6 4.576l.88.616a39.74 39.74 0 0 0 6.072 3.2c.368.16.728.304 1.096.448a40.54 40.54 0 0 0 6.672 2.016c.232.048.472.072.704.112 2.3.44 4.656.673 7.008.696h.464c1.605-.002 3.208-.104 4.8-.304-.2.272-.424.488-.632.72zm20.824-47.64c-.088.8-.256 1.6-.368 2.4-.328 2.4-.704 4.728-1.224 7.056-.216.976-.496 1.928-.744 2.888-.544 2.088-1.128 4.16-1.824 6.2-.368 1.088-.8 2.16-1.184 3.2a89.96 89.96 0 0 1-2.296 5.44c-.312.672-.64 1.328-.96 1.992L305.6 280.76a24.13 24.13 0 0 1-20.36-6.784l-23.592-23.592c.136-.28.232-.568.352-.848l.16-.384c.152-.376.328-.736.464-1.12H296a40.36 40.36 0 0 0 4.624-.272c.544-.064 1.064-.2 1.6-.28.984-.16 1.968-.296 2.936-.528.616-.144 1.208-.36 1.816-.536.864-.248 1.728-.472 2.576-.8.616-.224 1.208-.52 1.824-.8.8-.336 1.6-.648 2.4-1.032.616-.304 1.192-.672 1.792-1.008.728-.408 1.48-.8 2.184-1.248s1.152-.8 1.728-1.248 1.336-.936 1.968-1.448 1.064-.968 1.6-1.456 1.224-1.08 1.792-1.672.912-1.056 1.384-1.6l-.016.088c.464-.544.96-1.048 1.392-1.6.216 2.48.384 4.968.384 7.504-.01 3.208-.193 6.412-.552 9.6zM64 64h16v16H64zm336 336h16v16h-16zM56 240h16c.1-92.742 75.258-167.9 168-168V56c-101.573.115-183.885 82.427-184 184zM256 56h16v16h-16z"/></svg>